# AST/ASF file generated using VICON BodyLanguage
# -----------------------------------------------
:version 1.10
:name VICON
:units
  mass 1.0
  length 0.45
  angle deg
:documentation
   .ast/.asf automatically generated from VICON data using
   VICON BodyBuilder and BodyLanguage model FoxedUp or BRILLIANT.MOD
:root
   order TX TY TZ RX RY RZ
   axis XYZ
   position 0 0 0  
   orientation 0 0 0 
:bonedata
  begin
     id 1 
     name lhipjoint
     direction 0.692814 -0.645514 0.321437 
     length 2.38754 
     axis 0 0 0  XYZ
  end
  begin
     id 2 
     name lfemur
     direction 0.34202 -0.939693 0  
     length 6.41921  
     axis 0 0 20  XYZ
    dof rx ry rz
    limits (-160.0 20.0)
           (-70.0 70.0)
           (-60.0 70.0)
  end
  begin
     id 3 
     name ltibia
     direction 0.34202 -0.939693 0   
     length 6.98247   
     axis 0 0 20   XYZ
    dof rx
    limits (-10.0 170.0)
  end
  begin
     id 4 
     name lfoot
     direction 0.0947186 -0.260237 0.960888   
     length 1.83034   
     axis -90 7.62852e-016 20   XYZ
    dof rx rz
    limits (-45.0 90.0)
           (-70.0 20.0)
  end
  begin
     id 5 
     name ltoes
     direction 1.53538e-011 -4.21952e-011 1   
     length 0.920499   
     axis -90 7.62852e-016 20   XYZ
    dof rx
    limits (-90.0 20.0)
  end
  begin
     id 6 
     name rhipjoint
     direction -0.631686 -0.693949 0.345555   
     length 2.2209  
     axis 0 0 0  XYZ 
  end
  begin
     id 7 
     name rfemur
     direction -0.34202 -0.939693 0   
     length 6.49542   
     axis 0 0 -20   XYZ
    dof rx ry rz
    limits (-160.0 20.0)
           (-70.0 70.0)
           (-70.0 60.0)
  end
  begin
     id 8 
     name rtibia
     direction -0.34202 -0.939693 0   
     length 7.21712   
     axis 0 0 -20   XYZ
    dof rx
    limits (-10.0 170.0)
 end
 begin
     id 9 
     name rfoot
     direction -0.0825378 -0.226771 0.970444   
     length 1.89724  
     axis -90 -7.62852e-016 -20   XYZ
    dof rx rz
    limits (-45.0 90.0)
           (-20.0 70.0)
  end
  begin
     id 10 
     name rtoes
     direction -1.53515e-011 -4.22016e-011 1   
     length 0.955868   
     axis -90 -7.62852e-016 -20   XYZ
    dof rx
    limits (-90.0 20.0)
  end
  begin
     id 11 
     name lowerback
     direction -0.0104711 0.984802 -0.173368   
     length 1.84931   
     axis 0 0 0   XYZ
    dof rx ry rz
    limits (-20.0 45.0)
           (-30.0 30.0)
           (-30.0 30.0)
  end
  begin
     id 12 
     name upperback
     direction -0.00286433 0.999996 -0.000382853   
     length 1.85768   
     axis 0 0 0   XYZ
    dof rx ry rz
    limits (-20.0 45.0)
           (-30.0 30.0)
           (-30.0 30.0)
  end
  begin
     id 13 
     name thorax
     direction 0.00167534 0.996793 0.0800069   
     length 1.92   
     axis 0 0 0   XYZ
    dof rx ry rz
    limits (-20.0 45.0)
           (-30.0 30.0)
           (-30.0 30.0)
  end
  begin
     id 14 
     name lowerneck
     direction -0.0672491 0.995415 0.068018   
     length 1.58923   
     axis 0 0 0   XYZ
    dof rx ry rz
    limits (-20.0 45.0)
           (-30.0 30.0)
           (-30.0 30.0)
  end
  begin
     id 15 
     name upperneck
     direction 0.0958019 0.982476 -0.159884   
     length 1.60189   
     axis 0 0 0   XYZ
    dof rx ry rz
    limits (-20.0 45.0)
           (-30.0 30.0)
           (-30.0 30.0)
  end
  begin
     id 16
     name head
     direction 0.032989 0.997338 -0.0650226  
     length 1.61681  
     axis 0 0 0   XYZ
    dof rx ry rz
    limits (-20.0 45.0)
           (-30.0 30.0)
           (-30.0 30.0)
  end
  begin
     id 17 
     name lclavicle
     direction 0.954279 0.298875 -0.00496069  
     length 2.99449  
     axis 0 0 0   XYZ
    dof ry rz
    limits (-20.0 10.0)
           (0.0 20.0)
  end
  begin
     id 18 
     name lhumerus
     direction 1 -4.48985e-011 -4.2057e-027   
     length 4.79185   
     axis 180 -30 -90   XYZ
    dof rx ry rz
    limits (-60.0 90.0)
           (-90.0 90.0)
           (-90.0 90.0)
  end
  begin
     id 19
     name lradius
     direction 1 -4.48945e-011 1.15441e-028   
     length 2.65553   
     axis 180 -30 -90   XYZ
    dof rx
    limits (-10.0 170.0)
  end
  begin
     id 20
     name lwrist
     direction 1 -4.4899e-011 4.8894e-028   
     length 1.32777   
     axis -2.56392e-016 90 90   XYZ
    dof ry
    limits (-180.0 0.0)
 end
  begin
     id 21 
     name lhand
     direction 1 -4.48908e-011 9.7788e-028   
     length 0.743904   
     axis -6.23971e-016 90 90   XYZ
    dof rx rz
    limits (-90.0 90.0)
           (-45.0 45.0)
  end
  begin
     id 22 
     name lfingers
     direction 1 -4.49068e-011 1.95576e-027   
     length 0.599754   
     axis -1.24794e-015 90 90   XYZ
    dof rx
    limits (0.0 90.0)
  end
  begin
     id 23
     name lthumb
     direction 0.707107 -6.34883e-011 0.707107   
     length 0.861131   
     axis -90 45 2.85299e-015   XYZ
    dof rx rz
    limits (-45.0 45.0)
           (-45.0 45.0)
  end
  begin
     id 24 
     name rclavicle
     direction -0.957921 0.286916 0.00811568   
     length 3.06817  
     axis 0 0 0   XYZ 
    dof ry rz
    limits (-10.0 20.0)
           (-20.0 0.0)
  end
  begin
     id 25 
     name rhumerus
     direction -1 -4.48971e-011 -3.07942e-027  
     length 4.77254   
     axis 180 30 90   XYZ
    dof rx ry rz
    limits (-90.0 60.0)
           (-90.0 90.0)
           (-90.0 90.0)
  end
  begin
     id 26 
     name rradius
     direction -1 -4.48957e-011 -9.6815e-028   
     length 2.75995   
     axis 180 30 90   XYZ
    dof rx
    limits (-10.0 170.0)
  end
  begin
     id 27 
     name rwrist
     direction -1 -4.48979e-011 4.8894e-028   
     length 1.37997   
     axis -2.56392e-016 -90 -90   XYZ
    dof ry
    limits (-180.0 0.0)
  end
  begin
     id 28
     name rhand
     direction -1 -4.48906e-011 9.7788e-028   
     length 0.701619   
     axis -6.23971e-016 -90 -90   XYZ
    dof rx rz
    limits (-90.0 90.0)
           (-45.0 45.0)
  end
  begin
     id 29
     name rfingers
     direction -1 -4.49018e-011 1.95576e-027   
     length 0.565663   
     axis -1.24794e-015 -90 -90   XYZ
    dof rx
    limits (0.0 90.0)
  end
  begin
     id 30
     name rthumb
     direction -0.707107 -6.34881e-011 0.707107   
     length 0.812183   
     axis -90 -45 -2.85299e-015   XYZ
    dof rx rz
    limits (-45.0 45.0)
           (-45.0 45.0)
  end
:hierarchy
  begin
    root lhipjoint rhipjoint lowerback
    lhipjoint lfemur
    lfemur ltibia
    ltibia lfoot
    lfoot ltoes
    rhipjoint rfemur
    rfemur rtibia
    rtibia rfoot
    rfoot rtoes
    lowerback upperback
    upperback thorax
    thorax lowerneck lclavicle rclavicle
    lowerneck upperneck
    upperneck head
    lclavicle lhumerus
    lhumerus lradius
    lradius lwrist
    lwrist lhand lthumb
    lhand lfingers
    rclavicle rhumerus
    rhumerus rradius
    rradius rwrist
    rwrist rhand rthumb
    rhand rfingers
  end

#!OML:ASF F:\VICON\USERDATA\INSTALL\rory3\rory3.ASF
:FULLY-SPECIFIED
:DEGREES
405
root -0.0104029 15.1112 -1.81214 1.82209 -0.424518 0.171161
lowerback 20.4742 -0.385693 -3.66972
upperback 5.10468 -1.42897 -2.38531
thorax -5.87168 -0.661333 -0.116337
lowerneck -2.14846 -9.39619 -18.8536
upperneck 22.0193 -12.1062 5.10119
head 8.78725 -6.80952 3.65697
rclavicle -2.62396e-014 -2.78299e-014
rhumerus 16.7066 19.9765 -64.476
rradius 126.843
rwrist 6.10997
rhand 17.6271 8.24815
rfingers 7.12502
rthumb 42.3185 -16.2343
lclavicle -2.62396e-014 -2.78299e-014
lhumerus 2.31876 -29.6941 71.3897
lradius 112.958
lwrist -7.50861
lhand 2.95335 32.954
lfingers 7.12502
lthumb 28.416 60.8167
rfemur -29.3164 9.63872 16.0539
rtibia 50.8668
rfoot -18.4463 -11.9089
rtoes -19.4245
lfemur -27.5783 -7.75064 -14.4837
ltibia 46.9542
lfoot -16.5088 5.10321
ltoes -18.4857
406
root -0.0062648 15.127 -1.81879 1.87356 -0.648807 0.16571
lowerback 20.5654 -0.446412 -3.81019
upperback 5.15106 -1.53909 -2.36573
thorax -5.86209 -0.714072 0.0125586
lowerneck -2.54905 -9.41726 -19.0491
upperneck 22.4019 -11.9887 4.85415
head 8.98129 -6.79266 3.59208
rclavicle -1.39149e-014 -1.35174e-014
rhumerus 18.037 20.0739 -63.6572
rradius 124.651
rwrist 9.49764
rhand 11.0429 9.7534
rfingers 7.12502
rthumb 36.1148 -16.5348
lclavicle -1.39149e-014 -1.35174e-014
lhumerus 1.5261 -30.4863 71.0428
lradius 112.678
lwrist -6.28735
lhand 3.86166 33.7654
lfingers 7.12502
lthumb 29.2836 61.48
rfemur -29.2597 9.73667 16.026
rtibia 50.5127
rfoot -18.2992 -11.7385
rtoes -19.1713
lfemur -27.4409 -7.73153 -14.4841
ltibia 46.6551
lfoot -16.4094 5.32619
ltoes -18.3109
407
root -0.00281233 15.1423 -1.8269 1.91363 -0.967342 0.0672829
lowerback 20.6938 -0.413324 -3.90096
upperback 5.18796 -1.5178 -2.31554
thorax -5.8857 -0.703063 0.114029
lowerneck -2.75711 -9.47574 -19.2819
upperneck 22.6033 -11.9934 4.80008
head 9.10711 -6.81928 3.59406
rclavicle 8.74653e-015 1.19271e-014
rhumerus 19.0221 20.1342 -62.9674
rradius 122.321
rwrist 13.1861
rhand 6.19314 10.9794
rfingers 7.12502
rthumb 31.5073 -16.3241
lclavicle 8.74653e-015 1.19271e-014
lhumerus 0.986778 -31.4977 70.7742
lradius 112.777
lwrist -4.84031
lhand 5.00616 34.1673
lfingers 7.12502
lthumb 30.3758 61.6858
rfemur -29.216 9.93927 16.0997
rtibia 50.1602
rfoot -18.1495 -11.5887
rtoes -19.0892
lfemur -27.2651 -7.62776 -14.3869
ltibia 46.3348
lfoot -16.2867 5.56212
ltoes -18.188
408
root -0.00201708 15.1615 -1.83376 1.97464 -1.22548 0.0375215
lowerback 20.7947 -0.207185 -3.869
upperback 5.18737 -1.26023 -2.45829
thorax -5.95039 -0.577928 -0.121407
lowerneck -2.5193 -9.64434 -19.0539
upperneck 22.7085 -12.2978 4.79862
head 9.12262 -6.95074 3.53152
rclavicle 5.96354e-015 1.82882e-014
rhumerus 19.2465 19.6352 -62.7028
rradius 121.221
rwrist 14.1655
rhand 7.79411 8.93613
rfingers 7.12502
rthumb 33.0312 -18.0575
lclavicle 5.96354e-015 1.82882e-014
lhumerus 0.95136 -33.2393 70.2693
lradius 113.236
lwrist -3.31424
lhand 6.16651 34.5695
lfingers 7.12502
lthumb 31.482 61.878
rfemur -29.1574 10.0912 16.1074
rtibia 49.7666
rfoot -17.8977 -11.4761
rtoes -19.0679
lfemur -27.0954 -7.54381 -14.3592
ltibia 45.9899
lfoot -16.1752 5.77297
ltoes -18.3716
409
root -0.00118102 15.1842 -1.83698 2.03275 -1.3731 -0.0265825
lowerback 20.7448 -0.0422918 -3.66438
upperback 5.28761 -1.01133 -2.66142
thorax -5.82963 -0.462255 -0.519197
lowerneck -2.00004 -9.8028 -18.7441
upperneck 22.4484 -12.6632 4.89931
head 8.96471 -7.09067 3.50276
rclavicle 1.07344e-014 6.36111e-015
rhumerus 19.2336 19.1775 -62.5151
rradius 119.474
rwrist 15.9677
rhand 9.15273 7.71893
rfingers 7.12502
rthumb 34.3223 -18.9927
lclavicle 1.07344e-014 6.36111e-015
lhumerus 1.19592 -34.8851 69.6056
lradius 113.894
lwrist -1.63006
lhand 7.17001 35.0862
lfingers 7.12502
lthumb 32.4375 62.2034
rfemur -29.0051 10.2342 16.1463
rtibia 49.3243
rfoot -17.7336 -11.3216
rtoes -18.4905
lfemur -26.9092 -7.58065 -14.2834
ltibia 45.6238
lfoot -16.133 5.95113
ltoes -18.3046
410
root 0.000380122 15.2049 -1.83946 2.13527 -1.42039 -0.122445
lowerback 20.4654 -0.0289065 -3.41897
upperback 5.52688 -0.927993 -2.80973
thorax -5.43345 -0.430382 -0.838864
lowerneck -1.69081 -9.89672 -18.6852
upperneck 22.0798 -12.9048 5.16909
head 8.82207 -7.17305 3.57517
rclavicle 4.37326e-015 -1.66979e-014
rhumerus 19.4597 19.1925 -62.1641
rradius 117.256
rwrist 17.5817
rhand 10.4755 7.23091
rfingers 7.12502
rthumb 35.5772 -19.1884
lclavicle 4.37326e-015 -1.66979e-014
lhumerus 1.72624 -35.9266 68.8473
lradius 114.571
lwrist 0.484033
lhand 7.49654 34.9966
lfingers 7.12502
lthumb 32.7482 62.0496
rfemur -28.866 10.2777 16.2263
rtibia 48.8426
rfoot -17.4829 -11.3078
rtoes -18.7702
lfemur -26.8167 -7.67185 -14.1696
ltibia 45.2643
lfoot -15.9927 6.1276
ltoes -18.663
411
root 0.000402266 15.2204 -1.84326 2.28651 -1.42586 -0.0884977
lowerback 18.7623 0.148118 -4.02576
upperback 6.71249 -0.639358 -2.40714
thorax -3.26069 -0.330079 -0.13425
lowerneck -1.95733 -10.2099 -19.1807
upperneck 21.0707 -13.2816 5.55821
head 8.63521 -7.31603 3.72248
rclavicle -8.74653e-015 2.38542e-015
rhumerus 21.1302 19.1183 -60.3853
rradius 114.961
rwrist 18.1653
rhand 12.7695 6.27813
rfingers 7.12502
rthumb 37.7482 -19.5892
lclavicle -8.74653e-015 2.38542e-015
lhumerus 4.31394 -35.9157 68.0016
lradius 115.281
lwrist 2.47359
lhand 7.39167 34.8972
lfingers 7.12502
lthumb 32.6484 61.971
rfemur -28.8156 10.2341 16.1874
rtibia 48.366
rfoot -17.0361 -11.5762
rtoes -20.4815
lfemur -26.8134 -7.7971 -14.1782
ltibia 44.9217
lfoot -15.8026 6.28339
ltoes -18.747
412
root -0.00116802 15.2381 -1.8449 2.40394 -1.4059 -0.2197
lowerback 18.733 0.222151 -4.16001
upperback 6.73454 -0.556298 -2.25034
thorax -3.22015 -0.292791 0.0903583
lowerneck -1.9224 -10.3001 -19.4746
upperneck 21.1906 -13.4083 5.66672
head 8.72013 -7.39172 3.78453
rclavicle -1.03368e-014 -1.90833e-014
rhumerus 20.7778 20.0613 -59.7204
rradius 112.534
rwrist 18.6444
rhand 15.0163 6.18006
rfingers 7.12502
rthumb 39.867 -19.086
lclavicle -1.03368e-014 -1.90833e-014
lhumerus 5.06823 -36.3023 67.7384
lradius 116.505
lwrist 3.75532
lhand 7.25241 35.0962
lfingers 7.12502
lthumb 32.5159 62.1973
rfemur -28.7073 10.2713 16.3282
rtibia 47.9161
rfoot -16.6908 -11.7037
rtoes -21.2222
lfemur -26.7673 -7.88399 -14.0036
ltibia 44.6023
lfoot -15.6706 6.3862
ltoes -18.5583
413
root -0.00514225 15.2568 -1.84608 2.4906 -1.30077 -0.406532
lowerback 19.1105 0.258561 -4.1077
upperback 6.50885 -0.530768 -2.23629
thorax -3.65944 -0.270572 0.0710129
lowerneck -1.90924 -10.3398 -19.3575
upperneck 21.5689 -13.4655 5.56533
head 8.84091 -7.42896 3.7231
rclavicle -3.97569e-015 -2.22639e-014
rhumerus 19.7651 21.6531 -59.304
rradius 109.961
rwrist 20.0478
rhand 15.6823 6.27036
rfingers 7.12502
rthumb 40.4935 -18.8049
lclavicle -3.97569e-015 -2.22639e-014
lhumerus 5.63794 -36.6332 67.3418
lradius 117.818
lwrist 4.29757
lhand 7.25205 34.966
lfingers 7.12502
lthumb 32.5156 62.0671
rfemur -28.5529 10.3151 16.5334
rtibia 47.5138
rfoot -16.5462 -11.7505
rtoes -21.169
lfemur -26.7062 -7.99491 -13.7551
ltibia 44.2715
lfoot -15.5546 6.36407
ltoes -18.173
414
root -0.0105895 15.2732 -1.84714 2.60643 -1.16794 -0.424601
lowerback 19.1699 0.311464 -4.15124
upperback 6.4874 -0.475244 -2.2654
thorax -3.71453 -0.24194 0.0525794
lowerneck -1.96762 -10.4316 -19.2936
upperneck 21.7352 -13.587 5.55477
head 8.91986 -7.4845 3.68923
rclavicle -6.36111e-015 -2.06736e-014
rhumerus 18.974 23.2276 -58.6507
rradius 107.861
rwrist 20.2002
rhand 17.567 5.97542
rfingers 7.12502
rthumb 42.2622 -18.5262
lclavicle -6.36111e-015 -2.06736e-014
lhumerus 6.93991 -36.5197 66.6873
lradius 119.052
lwrist 4.26207
lhand 6.72693 34.5978
lfingers 7.12502
lthumb 32.0157 61.8006
rfemur -28.4678 10.3271 16.5423
rtibia 47.1611
rfoot -16.4254 -11.7878
rtoes -20.9498
lfemur -26.6827 -8.12215 -13.685
ltibia 43.9157
lfoot -15.378 6.32782
ltoes -17.96
